<svg xmlns="http://www.w3.org/2000/svg" viewBox="0 0 320 220">
  <defs>
    <linearGradient id="bg" x1="0" y1="0" x2="1" y2="1">
      <stop offset="0" stop-color="#2a0a54"/>
      <stop offset="0.55" stop-color="#47106e"/>
      <stop offset="1" stop-color="#7a1663"/>
    </linearGradient>
    <linearGradient id="lane" x1="0" y1="0" x2="0" y2="1">
      <stop offset="0" stop-color="#ffffff" stop-opacity="0.02"/>
      <stop offset="1" stop-color="#9b5cff" stop-opacity="0.35"/>
    </linearGradient>
    <linearGradient id="ttl" x1="0" y1="0" x2="1" y2="0">
      <stop offset="0" stop-color="#4ffcff"/>
      <stop offset="1" stop-color="#ff6bd6"/>
    </linearGradient>
    <filter id="glow"><feGaussianBlur stdDeviation="3" result="b"/><feMerge><feMergeNode in="b"/><feMergeNode in="SourceGraphic"/></feMerge></filter>
  </defs>
  <rect width="320" height="220" fill="url(#bg)"/>
  <!-- ステージ -->
  <path d="M136 58 L184 58 L272 190 L48 190 Z" fill="url(#lane)"/>
  <g stroke="#b79aff" stroke-opacity="0.5" stroke-width="1">
    <line x1="136" y1="58" x2="48" y2="190"/>
    <line x1="152" y1="58" x2="123" y2="190"/>
    <line x1="168" y1="58" x2="197" y2="190"/>
    <line x1="184" y1="58" x2="272" y2="190"/>
  </g>
  <line x1="40" y1="176" x2="280" y2="176" stroke="#b7fdff" stroke-width="5" filter="url(#glow)"/>
  <!-- ノーツ -->
  <rect x="88" y="150" width="46" height="12" rx="6" fill="#4ffcff" filter="url(#glow)"/>
  <rect x="176" y="118" width="38" height="10" rx="5" fill="#7dffa9" filter="url(#glow)"/>
  <rect x="182" y="80" width="26" height="40" fill="#7dffa9" opacity="0.35"/>
  <rect x="184" y="76" width="22" height="8" rx="4" fill="#7dffa9"/>
  <rect x="142" y="96" width="30" height="9" rx="4.5" fill="#ff6bd6" filter="url(#glow)"/>
  <path d="M157 82 L165 92 L149 92 Z" fill="#ffffff" filter="url(#glow)"/>
  <!-- タイトル -->
  <text x="160" y="34" text-anchor="middle" font-family="Arial Black, sans-serif" font-size="26" font-style="italic" font-weight="900" fill="url(#ttl)" filter="url(#glow)">NEON BEATS</text>
  <text x="160" y="211" text-anchor="middle" font-family="sans-serif" font-size="11" fill="#ffe066">♪ LOTSGAME オリジナル音ゲー ♪</text>
</svg>
